<?xml version="1.0" encoding="utf-8"?>
<!-- Svg Vector Icons : http://www.onlinewebfonts.com/icon -->
<!DOCTYPE svg PUBLIC "-//W3C//DTD SVG 1.1//EN" "http://www.w3.org/Graphics/SVG/1.1/DTD/svg11.dtd">
<svg version="1.1" xmlns="http://www.w3.org/2000/svg" xmlns:xlink="http://www.w3.org/1999/xlink" x="0px" y="0px" viewBox="0 0 1000 1000" enable-background="new 0 0 1000 1000" xml:space="preserve">
<metadata> Svg Vector Icons : http://www.onlinewebfonts.com/icon </metadata>
<g><path d="M486.4,97.3L23.6,481.9c0,0-21.5,21.5-10.4,43.9c11.2,22.3,27.1,23.9,44.7,23.9c17.6,0,82.2,0,82.2,0v234.6c0,0,1.6,123.7,196.3,127.7c194.7,4,260.1,0,260.1,0s93.4-4.8,91-126.1c-2.4-121.3,0-165.2,0-165.2s6.3-89.4-111.8-109.3c-115.7,0-124.5,0-124.5,0s-97.3,1.2-104.1,109.3l-0.8,89.8c0,0-2.8,45.9,34.7,49.9c9.6,0.4,39.9-2.8,41.1-39.9c-0.8-37.9-0.4-93.8-0.4-93.8s1.6-41.1,33.9-39.5c32.3,1.6,115.7,0.8,115.7,0.8s36.3,2.4,40.7,30.7c0.4,29.5-0.4,181.1-0.4,181.1s0.8,40.7-27.1,37.1c-28.3-0.4-205.1,6-273.3-2.4c-10,0-88.6-7.6-95-56.7c0.4-22.7,0.4-266.9,0.4-266.9s-0.4-33.1-35.5-36.7h-28.7l361.1-300.4l336.7,287.2c0,0-43.5-4.8-46.7,33.9c0.4,39.1,0.4,274.5,0.4,274.5s1.2,61-23.5,57.5c-15.2,2-37.5,4.8-40.7,39.5c1.6,10.8,8,41.9,57,35.1c18-4.4,70.2-15.2,80.2-99.3c1.6-51.5,2.4-51.5,2-73c-0.4-21.5,0.1-191.9,0.1-191.9h69.7c0,0,33.4,1.8,41.2-31.8c0-11.7-0.1-23.2-15.7-36.8c-15.6-13.6-422.5-362.3-422.5-362.3s-19.7-20.3-36.3-20.1C511.1,86.5,499.3,86.5,486.4,97.3z"/></g>
</svg>